REM DIRINDEX 1\2\3,1\2\4,1\2\5,1\2\6
REM DIRNAME cjc157,folder01,folder02,folder03,folder04,folder05
TITLE ""
FILE "113 113.mp3" MP3
  TRACK 01 AUDIO
    TITLE "0:"
    INDEX 01 00:00:00
  TRACK 02 AUDIO
    TITLE "3:cjc157_4192"
    INDEX 01 00:00:11
  TRACK 03 AUDIO
    TITLE "0:"
    INDEX 01 00:01:36
  TRACK 04 AUDIO
    TITLE "4:cjc157_4193"
    INDEX 01 00:02:06
  TRACK 05 AUDIO
    TITLE "0:"
    INDEX 01 00:03:10
  TRACK 06 AUDIO
    TITLE "5:cjc157_4194"
    INDEX 01 00:03:51
  TRACK 07 AUDIO
    TITLE "0:"
    INDEX 01 00:06:04
  TRACK 08 AUDIO
    TITLE "3:cjc157_4195"
    INDEX 01 00:06:49
  TRACK 09 AUDIO
    TITLE "0:"
    INDEX 01 00:07:51
  TRACK 10 AUDIO
    TITLE "4:cjc157_4196"
    INDEX 01 00:08:26
  TRACK 11 AUDIO
    TITLE "0:"
    INDEX 01 00:09:32
  TRACK 12 AUDIO
    TITLE "5:cjc157_4197"
    INDEX 01 00:10:04
  TRACK 13 AUDIO
    TITLE "0:"
    INDEX 01 00:12:54
  TRACK 14 AUDIO
    TITLE "3:cjc157_4198"
    INDEX 01 00:13:20
  TRACK 15 AUDIO
    TITLE "0:"
    INDEX 01 00:14:35
  TRACK 16 AUDIO
    TITLE "4:cjc157_4199"
    INDEX 01 00:15:03
  TRACK 17 AUDIO
    TITLE "0:"
    INDEX 01 00:16:30
  TRACK 18 AUDIO
    TITLE "5:cjc157_4200"
    INDEX 01 00:17:04
  TRACK 19 AUDIO
    TITLE "0:"
    INDEX 01 00:19:22
  TRACK 20 AUDIO
    TITLE "3:cjc157_4201"
    INDEX 01 00:19:73
  TRACK 21 AUDIO
    TITLE "0:"
    INDEX 01 00:21:09
  TRACK 22 AUDIO
    TITLE "4:cjc157_4202"
    INDEX 01 00:21:57
  TRACK 23 AUDIO
    TITLE "0:"
    INDEX 01 00:22:56
  TRACK 24 AUDIO
    TITLE "5:cjc157_4203"
    INDEX 01 00:23:30
  TRACK 25 AUDIO
    TITLE "0:"
    INDEX 01 00:24:72
  TRACK 26 AUDIO
    TITLE "3:cjc157_4204"
    INDEX 01 00:25:45
  TRACK 27 AUDIO
    TITLE "0:"
    INDEX 01 00:26:50
  TRACK 28 AUDIO
    TITLE "4:cjc157_4205"
    INDEX 01 00:27:24
  TRACK 29 AUDIO
    TITLE "0:"
    INDEX 01 00:28:31
  TRACK 30 AUDIO
    TITLE "5:cjc157_4206"
    INDEX 01 00:28:74
  TRACK 31 AUDIO
    TITLE "0:"
    INDEX 01 00:30:59
  TRACK 32 AUDIO
    TITLE "5:cjc157_4207"
    INDEX 01 00:31:31
  TRACK 33 AUDIO
    TITLE "0:"
    INDEX 01 00:33:42
  TRACK 34 AUDIO
    TITLE "5:cjc157_4208"
    INDEX 01 00:34:14
  TRACK 35 AUDIO
    TITLE "0:"
    INDEX 01 00:35:63
  TRACK 36 AUDIO
    TITLE "3:cjc157_4209"
    INDEX 01 00:36:27
  TRACK 37 AUDIO
    TITLE "0:"
    INDEX 01 00:37:63
  TRACK 38 AUDIO
    TITLE "4:cjc157_4210"
    INDEX 01 00:38:33
  TRACK 39 AUDIO
    TITLE "0:"
    INDEX 01 00:39:45
  TRACK 40 AUDIO
    TITLE "5:cjc157_4211"
    INDEX 01 00:40:13
  TRACK 41 AUDIO
    TITLE "0:"
    INDEX 01 00:41:63
  TRACK 42 AUDIO
    TITLE "5:cjc157_4212"
    INDEX 01 00:42:39
  TRACK 43 AUDIO
    TITLE "0:"
    INDEX 01 00:44:26
  TRACK 44 AUDIO
    TITLE "3:cjc157_4213"
    INDEX 01 00:44:69
  TRACK 45 AUDIO
    TITLE "0:"
    INDEX 01 00:46:62
  TRACK 46 AUDIO
    TITLE "4:cjc157_4214"
    INDEX 01 00:47:30
  TRACK 47 AUDIO
    TITLE "0:"
    INDEX 01 00:48:51
  TRACK 48 AUDIO
    TITLE "5:cjc157_4215"
    INDEX 01 00:49:33
  TRACK 49 AUDIO
    TITLE "0:"
    INDEX 01 00:51:40
  TRACK 50 AUDIO
    TITLE "5:cjc157_4216"
    INDEX 01 00:52:10
  TRACK 51 AUDIO
    TITLE "0:"
    INDEX 01 00:54:05
  TRACK 52 AUDIO
    TITLE "3:cjc157_4217"
    INDEX 01 00:54:50
  TRACK 53 AUDIO
    TITLE "0:"
    INDEX 01 00:56:06
  TRACK 54 AUDIO
    TITLE "4:cjc157_4218"
    INDEX 01 00:56:53
  TRACK 55 AUDIO
    TITLE "0:"
    INDEX 01 00:57:58
  TRACK 56 AUDIO
    TITLE "5:cjc157_4219"
    INDEX 01 00:58:34
  TRACK 57 AUDIO
    TITLE "0:"
    INDEX 01 01:00:49
  TRACK 58 AUDIO
    TITLE "3:cjc157_4220"
    INDEX 01 01:01:25
  TRACK 59 AUDIO
    TITLE "0:"
    INDEX 01 01:02:22
  TRACK 60 AUDIO
    TITLE "4:cjc157_4221"
    INDEX 01 01:02:69
  TRACK 61 AUDIO
    TITLE "0:"
    INDEX 01 01:03:65
  TRACK 62 AUDIO
    TITLE "5:cjc157_4222"
    INDEX 01 01:04:41
  TRACK 63 AUDIO
    TITLE "0:"
    INDEX 01 01:07:35
  TRACK 64 AUDIO
    TITLE "5:cjc157_4223"
    INDEX 01 01:07:74
  TRACK 65 AUDIO
    TITLE "0:"
    INDEX 01 01:09:40
  TRACK 66 AUDIO
    TITLE "3:cjc157_4224"
    INDEX 01 01:10:16
  TRACK 67 AUDIO
    TITLE "0:"
    INDEX 01 01:11:41
  TRACK 68 AUDIO
    TITLE "4:cjc157_4225"
    INDEX 01 01:12:13
  TRACK 69 AUDIO
    TITLE "0:"
    INDEX 01 01:13:14
  TRACK 70 AUDIO
    TITLE "5:cjc157_4226"
    INDEX 01 01:13:73
  TRACK 71 AUDIO
    TITLE "0:"
    INDEX 01 01:15:27
  TRACK 72 AUDIO
    TITLE "5:cjc157_4227"
    INDEX 01 01:15:72
  TRACK 73 AUDIO
    TITLE "0:"
    INDEX 01 01:18:66
